<?xml version="1.0" encoding="UTF-8" standalone="no"?>
<!DOCTYPE svg PUBLIC "-//W3C//DTD SVG 1.0//EN" "http://www.w3.org/TR/2001/REC-SVG-20010904/DTD/svg10.dtd">
<svg xmlns="http://www.w3.org/2000/svg" version="1.0" viewBox="0.00 0.00 711.00 103.00">
<g fill="#f5f4f0">
<path d="
  M 107.14 64.72
  L 107.30 64.74
  L 107.45 64.79
  L 107.59 64.87
  L 107.71 64.98
  L 107.80 65.11
  L 107.86 65.26
  L 107.89 65.42
  L 107.88 65.58
  L 107.88 65.58
  L 107.86 65.69
  L 107.73 66.16
  L 107.64 66.61
  L 107.58 67.05
  L 107.56 67.47
  L 107.58 67.88
  L 107.63 68.28
  L 107.71 68.67
  L 107.83 69.04
  L 107.83 69.04
  L 107.83 69.04
  L 107.96 69.34
  L 108.11 69.63
  L 108.28 69.91
  L 108.48 70.18
  L 108.58 70.29
  L 108.71 70.39
  L 109.04 70.58
  L 109.47 70.73
  L 110.00 70.85
  L 110.62 70.94
  L 111.35 71.01
  L 112.17 71.04
  L 113.10 71.04
  L 119.61 70.99
  L 129.78 70.99
  L 130.02 70.98
  L 130.26 70.94
  L 130.49 70.88
  L 130.71 70.80
  L 131.07 70.63
  L 131.40 70.44
  L 131.71 70.24
  L 131.99 70.03
  L 132.24 69.80
  L 132.47 69.55
  L 132.68 69.29
  L 132.86 69.01
  L 132.86 69.01
  L 132.86 69.01
  L 132.86 69.01
  L 132.86 69.01
  L 132.99 68.76
  L 133.11 68.49
  L 133.20 68.22
  L 133.28 67.93
  L 133.63 66.32
  L 133.92 64.89
  L 134.14 63.66
  L 134.29 62.62
  L 134.30 62.20
  L 134.25 61.79
  L 134.16 61.44
  L 134.05 61.12
  L 133.92 60.81
  L 133.77 60.53
  L 133.61 60.26
  L 133.43 60.02
  L 133.23 59.80
  L 133.01 59.60
  L 133.01 59.60
  L 133.01 59.60
  L 133.01 59.60
  L 132.75 59.39
  L 132.46 59.22
  L 132.15 59.07
  L 131.81 58.94
  L 131.46 58.84
  L 131.08 58.77
  L 130.68 58.73
  L 130.26 58.71
  L 126.73 58.68
  L 123.67 58.68
  L 121.06 58.70
  L 118.91 58.75
  L 117.04 58.79
  L 115.31 58.78
  L 113.71 58.72
  L 112.25 58.61
  L 110.92 58.45
  L 109.72 58.23
  L 109.17 58.11
  L 108.65 57.97
  L 108.17 57.82
  L 107.72 57.66
  L 106.75 57.25
  L 105.83 56.77
  L 104.95 56.24
  L 104.12 55.65
  L 104.12 55.65
  L 104.12 55.65
  L 104.12 55.65
  L 104.12 55.65
  L 103.68 55.29
  L 103.25 54.92
  L 102.83 54.53
  L 102.43 54.12
  L 102.04 53.70
  L 101.67 53.25
  L 101.31 52.79
  L 100.97 52.31
  L 100.64 51.81
  L 100.32 51.29
  L 100.02 50.76
  L 99.73 50.20
  L 99.45 49.63
  L 99.19 49.04
  L 98.71 47.81
  L 98.57 47.36
  L 98.45 46.89
  L 98.36 46.39
  L 98.28 45.84
  L 98.23 45.27
  L 98.19 44.65
  L 98.18 43.99
  L 98.19 43.30
  L 98.26 41.82
  L 98.42 40.16
  L 98.65 38.29
  L 99.02 35.76
  L 99.20 34.58
  L 99.31 33.89
  L 99.45 33.21
  L 99.60 32.53
  L 99.77 31.87
  L 99.95 31.22
  L 100.16 30.57
  L 100.39 29.93
  L 100.63 29.31
  L 100.89 28.69
  L 101.17 28.08
  L 101.47 27.48
  L 101.79 26.90
  L 102.12 26.32
  L 102.47 25.76
  L 102.84 25.21
  L 103.23 24.67
  L 103.84 23.88
  L 104.48 23.13
  L 105.16 22.41
  L 105.87 21.72
  L 106.62 21.05
  L 107.40 20.42
  L 108.21 19.83
  L 109.06 19.27
  L 109.93 18.75
  L 110.83 18.26
  L 111.76 17.80
  L 112.71 17.39
  L 113.69 17.01
  L 114.69 16.67
  L 115.71 16.37
  L 116.76 16.11
  L 117.24 16.03
  L 117.72 16.00
  L 132.75 15.98
  L 134.20 15.95
  L 135.56 15.96
  L 136.81 16.03
  L 137.97 16.14
  L 139.03 16.29
  L 140.00 16.50
  L 140.86 16.75
  L 141.63 17.05
  L 142.59 17.52
  L 143.51 18.03
  L 144.38 18.60
  L 145.20 19.22
  L 145.98 19.88
  L 146.71 20.59
  L 147.38 21.35
  L 148.00 22.14
  L 148.40 22.73
  L 148.78 23.34
  L 149.12 23.96
  L 149.44 24.60
  L 149.72 25.26
  L 149.98 25.94
  L 150.20 26.62
  L 150.39 27.33
  L 150.56 28.04
  L 150.69 28.77
  L 150.79 29.51
  L 150.86 30.27
  L 150.90 31.03
  L 150.90 31.79
  L 150.88 32.57
  L 150.82 33.36
  L 150.80 33.49
  L 150.75 33.61
  L 150.68 33.72
  L 150.59 33.82
  L 150.49 33.89
  L 150.37 33.95
  L 150.25 33.99
  L 150.12 34.00
  L 137.34 34.00
  L 137.23 33.99
  L 137.12 33.96
  L 137.02 33.90
  L 136.93 33.83
  L 136.86 33.74
  L 136.80 33.64
  L 136.77 33.53
  L 136.76 33.41
  L 136.75 33.06
  L 136.71 32.73
  L 136.66 32.41
  L 136.58 32.12
  L 136.48 31.84
  L 136.35 31.59
  L 136.21 31.35
  L 136.04 31.13
  L 136.04 31.13
  L 136.04 31.13
  L 136.04 31.13
  L 136.04 31.13
  L 136.04 31.13
  L 135.78 30.87
  L 135.47 30.64
  L 135.12 30.44
  L 134.74 30.28
  L 134.31 30.15
  L 133.84 30.06
  L 133.32 30.01
  L 132.77 29.99
  L 126.54 29.98
  L 121.86 30.00
  L 118.71 30.03
  L 117.10 30.09
  L 116.68 30.15
  L 116.28 30.25
  L 116.28 30.25
  L 116.28 30.25
  L 116.28 30.25
  L 115.89 30.41
  L 115.53 30.60
  L 115.17 30.84
  L 114.84 31.13
  L 114.51 31.47
  L 114.21 31.85
  L 113.92 32.28
  L 113.64 32.75
  L 113.52 33.03
  L 113.44 33.32
  L 112.93 36.39
  L 112.40 39.74
  L 112.33 40.34
  L 112.30 40.90
  L 112.32 41.42
  L 112.38 41.90
  L 112.49 42.34
  L 112.64 42.75
  L 112.83 43.12
  L 113.08 43.45
  L 113.08 43.45
  L 113.08 43.45
  L 113.08 43.45
  L 113.37 43.75
  L 113.71 44.01
  L 114.10 44.23
  L 114.54 44.40
  L 115.02 44.54
  L 115.55 44.64
  L 116.13 44.70
  L 116.75 44.72
  L 127.84 44.71
  L 134.97 44.75
  L 135.38 44.77
  L 135.78 44.81
  L 136.19 44.88
  L 136.59 44.98
  L 137.30 45.18
  L 137.98 45.41
  L 138.66 45.66
  L 139.31 45.94
  L 139.95 46.24
  L 140.57 46.56
  L 141.16 46.90
  L 141.74 47.26
  L 142.30 47.65
  L 142.83 48.06
  L 143.34 48.49
  L 143.83 48.93
  L 144.30 49.41
  L 144.74 49.90
  L 145.16 50.40
  L 145.56 50.93
  L 145.96 51.52
  L 146.33 52.13
  L 146.67 52.76
  L 146.98 53.41
  L 147.26 54.07
  L 147.50 54.76
  L 147.72 55.46
  L 147.90 56.17
  L 148.05 56.90
  L 148.17 57.64
  L 148.25 58.39
  L 148.31 59.15
  L 148.33 59.93
  L 148.31 60.72
  L 148.27 61.51
  L 148.19 62.31
  L 147.67 66.52
  L 147.49 67.71
  L 147.38 68.31
  L 147.11 69.19
  L 146.83 70.05
  L 146.52 70.88
  L 146.19 71.69
  L 145.84 72.48
  L 145.47 73.25
  L 145.08 74.00
  L 144.67 74.72
  L 144.24 75.42
  L 143.79 76.10
  L 143.32 76.75
  L 142.83 77.38
  L 142.31 77.99
  L 141.78 78.58
  L 141.23 79.15
  L 140.65 79.69
  L 140.65 79.69
  L 140.65 79.69
  L 140.65 79.69
  L 140.65 79.69
  L 139.76 80.46
  L 138.81 81.18
  L 137.83 81.84
  L 136.79 82.46
  L 135.71 83.03
  L 134.59 83.55
  L 133.42 84.01
  L 132.20 84.43
  L 131.29 84.68
  L 130.31 84.90
  L 129.24 85.07
  L 128.09 85.19
  L 126.87 85.28
  L 125.57 85.32
  L 124.18 85.32
  L 122.72 85.28
  L 121.82 85.26
  L 120.74 85.26
  L 117.60 85.33
  L 114.46 85.40
  L 112.13 85.41
  L 110.06 85.36
  L 109.11 85.31
  L 108.22 85.24
  L 107.35 85.15
  L 106.53 85.04
  L 105.77 84.91
  L 105.05 84.77
  L 104.37 84.60
  L 103.74 84.42
  L 103.15 84.21
  L 102.61 83.99
  L 101.68 83.54
  L 100.80 83.05
  L 99.97 82.51
  L 99.18 81.93
  L 98.44 81.31
  L 97.75 80.65
  L 97.10 79.94
  L 96.51 79.20
  L 96.03 78.51
  L 95.59 77.80
  L 95.19 77.05
  L 94.84 76.28
  L 94.52 75.49
  L 94.25 74.67
  L 94.02 73.82
  L 93.83 72.96
  L 93.69 72.06
  L 93.59 71.15
  L 93.53 70.22
  L 93.52 69.28
  L 93.55 68.32
  L 93.63 67.34
  L 93.75 66.36
  L 93.91 65.36
  L 93.95 65.23
  L 94.00 65.11
  L 94.08 65.00
  L 94.18 64.90
  L 94.29 64.82
  L 94.41 64.77
  L 94.55 64.73
  L 94.68 64.72
  L 107.14 64.72
  Z"
/>
<path d="
  M 365.08 46.78
  L 365.53 43.60
  L 365.98 40.40
  L 366.17 39.21
  L 366.36 38.17
  L 366.57 37.18
  L 366.80 36.27
  L 367.04 35.44
  L 367.30 34.66
  L 367.60 33.88
  L 367.92 33.11
  L 368.26 32.34
  L 368.63 31.58
  L 369.03 30.83
  L 369.45 30.09
  L 369.89 29.36
  L 370.35 28.64
  L 370.84 27.94
  L 371.34 27.24
  L 371.87 26.56
  L 372.42 25.89
  L 372.98 25.24
  L 373.57 24.61
  L 374.17 23.99
  L 374.79 23.39
  L 375.43 22.81
  L 376.07 22.25
  L 376.74 21.71
  L 377.42 21.19
  L 378.11 20.69
  L 378.82 20.21
  L 379.53 19.76
  L 380.25 19.34
  L 380.98 18.93
  L 381.72 18.55
  L 382.47 18.19
  L 383.22 17.86
  L 383.99 17.56
  L 384.76 17.28
  L 385.53 17.02
  L 386.31 16.79
  L 386.98 16.62
  L 387.71 16.46
  L 388.47 16.33
  L 389.27 16.20
  L 390.12 16.10
  L 391.02 16.01
  L 392.95 15.88
  L 395.03 15.82
  L 397.35 15.82
  L 399.91 15.88
  L 403.27 16.01
  L 403.45 16.01
  L 404.22 16.06
  L 404.99 16.13
  L 405.75 16.23
  L 406.49 16.35
  L 407.23 16.51
  L 407.96 16.68
  L 408.68 16.89
  L 409.39 17.12
  L 410.08 17.37
  L 410.77 17.65
  L 411.44 17.96
  L 412.10 18.29
  L 412.75 18.65
  L 413.37 19.02
  L 413.99 19.43
  L 414.59 19.86
  L 415.13 20.27
  L 415.66 20.71
  L 416.17 21.16
  L 416.66 21.64
  L 417.14 22.13
  L 417.60 22.64
  L 418.04 23.16
  L 418.46 23.70
  L 418.86 24.26
  L 419.25 24.83
  L 419.61 25.41
  L 419.96 26.01
  L 420.28 26.62
  L 420.59 27.24
  L 420.87 27.88
  L 421.13 28.52
  L 421.37 29.18
  L 421.59 29.84
  L 421.78 30.51
  L 421.96 31.19
  L 422.11 31.88
  L 422.23 32.57
  L 422.34 33.27
  L 422.42 33.98
  L 422.48 34.69
  L 422.51 35.41
  L 422.53 36.12
  L 422.52 36.84
  L 422.48 37.56
  L 422.42 38.28
  L 422.34 39.00
  L 422.24 39.72
  L 419.93 54.87
  L 419.48 58.06
  L 419.03 61.26
  L 418.84 62.44
  L 418.65 63.48
  L 418.43 64.47
  L 418.21 65.37
  L 417.97 66.21
  L 417.71 66.98
  L 417.41 67.76
  L 417.09 68.53
  L 416.75 69.30
  L 416.37 70.06
  L 415.98 70.81
  L 415.56 71.55
  L 415.12 72.28
  L 414.66 73.00
  L 414.17 73.71
  L 413.67 74.40
  L 413.14 75.09
  L 412.59 75.75
  L 412.02 76.40
  L 411.44 77.04
  L 410.84 77.66
  L 410.22 78.26
  L 409.58 78.83
  L 408.93 79.39
  L 408.27 79.93
  L 407.59 80.45
  L 406.90 80.95
  L 406.19 81.43
  L 405.48 81.88
  L 404.76 82.31
  L 404.03 82.71
  L 403.28 83.09
  L 402.54 83.45
  L 401.78 83.78
  L 401.02 84.09
  L 400.25 84.37
  L 399.48 84.62
  L 398.70 84.85
  L 398.02 85.02
  L 397.30 85.18
  L 396.54 85.32
  L 395.74 85.44
  L 394.88 85.54
  L 393.99 85.63
  L 392.06 85.76
  L 389.97 85.82
  L 387.66 85.82
  L 385.10 85.76
  L 381.73 85.64
  L 381.56 85.63
  L 380.79 85.58
  L 380.02 85.51
  L 379.26 85.41
  L 378.52 85.29
  L 377.78 85.14
  L 377.05 84.96
  L 376.33 84.76
  L 375.62 84.53
  L 374.93 84.27
  L 374.24 83.99
  L 373.57 83.68
  L 372.91 83.35
  L 372.26 83.00
  L 371.64 82.62
  L 371.02 82.21
  L 370.42 81.79
  L 369.88 81.37
  L 369.35 80.93
  L 368.84 80.48
  L 368.35 80.01
  L 367.87 79.52
  L 367.41 79.01
  L 366.97 78.48
  L 366.55 77.94
  L 366.15 77.39
  L 365.76 76.82
  L 365.40 76.23
  L 365.05 75.64
  L 364.73 75.02
  L 364.42 74.40
  L 364.14 73.77
  L 363.88 73.12
  L 363.64 72.47
  L 363.42 71.80
  L 363.23 71.13
  L 363.05 70.45
  L 362.90 69.76
  L 362.77 69.07
  L 362.67 68.37
  L 362.59 67.66
  L 362.53 66.95
  L 362.49 66.24
  L 362.48 65.52
  L 362.49 64.81
  L 362.53 64.09
  L 362.59 63.36
  L 362.67 62.64
  L 362.77 61.92
  L 365.08 46.78
  Z
  M 378.79 48.51
  L 377.99 53.81
  L 377.23 59.18
  L 377.05 60.54
  L 376.93 61.78
  L 376.85 62.90
  L 376.83 63.91
  L 376.86 64.80
  L 376.94 65.57
  L 377.06 66.22
  L 377.15 66.51
  L 377.24 66.76
  L 377.52 67.35
  L 377.83 67.91
  L 378.18 68.43
  L 378.58 68.92
  L 378.58 68.92
  L 378.58 68.92
  L 378.58 68.92
  L 378.58 68.92
  L 379.00 69.36
  L 379.46 69.77
  L 379.96 70.15
  L 380.50 70.50
  L 381.07 70.82
  L 381.68 71.10
  L 382.33 71.34
  L 383.02 71.56
  L 383.43 71.64
  L 383.85 71.66
  L 385.29 71.65
  L 387.50 71.72
  L 389.77 71.80
  L 391.46 71.81
  L 392.97 71.77
  L 394.32 71.67
  L 394.97 71.60
  L 395.59 71.51
  L 396.17 71.40
  L 396.71 71.28
  L 397.24 71.14
  L 397.72 70.98
  L 398.19 70.81
  L 398.63 70.62
  L 399.11 70.38
  L 399.56 70.13
  L 400.00 69.86
  L 400.41 69.59
  L 400.81 69.29
  L 401.18 68.98
  L 401.55 68.64
  L 401.88 68.30
  L 402.28 67.86
  L 402.64 67.39
  L 402.97 66.90
  L 403.29 66.37
  L 403.58 65.82
  L 403.85 65.24
  L 404.10 64.62
  L 404.33 63.97
  L 404.53 63.30
  L 404.72 62.59
  L 404.90 61.82
  L 405.06 61.00
  L 405.36 59.17
  L 405.72 56.54
  L 405.97 54.62
  L 406.18 53.18
  L 406.97 47.88
  L 407.73 42.51
  L 407.91 41.16
  L 408.03 39.91
  L 408.11 38.79
  L 408.13 37.78
  L 408.10 36.89
  L 408.03 36.12
  L 407.90 35.47
  L 407.82 35.18
  L 407.72 34.93
  L 407.45 34.34
  L 407.13 33.78
  L 406.78 33.26
  L 406.38 32.77
  L 406.38 32.77
  L 406.38 32.77
  L 406.38 32.77
  L 405.96 32.33
  L 405.50 31.92
  L 405.00 31.54
  L 404.46 31.19
  L 403.89 30.88
  L 403.28 30.59
  L 402.63 30.35
  L 401.94 30.13
  L 401.53 30.05
  L 401.11 30.03
  L 399.67 30.04
  L 397.46 29.97
  L 395.19 29.90
  L 393.50 29.88
  L 391.99 29.92
  L 390.64 30.02
  L 389.99 30.09
  L 389.38 30.18
  L 388.80 30.29
  L 388.25 30.41
  L 387.73 30.55
  L 387.24 30.71
  L 386.77 30.88
  L 386.33 31.07
  L 385.85 31.31
  L 385.40 31.56
  L 384.96 31.83
  L 384.55 32.11
  L 384.15 32.40
  L 383.78 32.72
  L 383.41 33.05
  L 383.08 33.39
  L 382.68 33.84
  L 382.32 34.30
  L 381.99 34.79
  L 381.67 35.32
  L 381.38 35.87
  L 381.11 36.46
  L 380.86 37.07
  L 380.63 37.73
  L 380.43 38.40
  L 380.24 39.11
  L 380.07 39.87
  L 379.90 40.69
  L 379.60 42.53
  L 379.25 45.16
  L 378.99 47.08
  L 378.79 48.51
  Z"
/>
<path d="
  M 208.71 16.56
  L 208.72 16.56
  L 208.85 16.59
  L 208.95 16.67
  L 209.02 16.78
  L 209.03 16.91
  L 204.05 84.51
  L 204.00 84.70
  L 203.88 84.86
  L 203.71 84.96
  L 203.52 85.00
  L 190.56 85.00
  L 190.55 85.00
  L 190.36 84.96
  L 190.20 84.84
  L 190.10 84.67
  L 190.07 84.48
  L 190.83 74.15
  L 190.83 74.02
  L 190.80 73.89
  L 190.75 73.77
  L 190.67 73.67
  L 190.58 73.58
  L 190.47 73.51
  L 190.35 73.47
  L 190.22 73.45
  L 190.19 73.45
  L 167.72 73.45
  L 167.52 73.48
  L 167.34 73.58
  L 167.21 73.73
  L 167.12 73.91
  L 164.12 84.49
  L 164.03 84.69
  L 163.87 84.86
  L 163.67 84.96
  L 163.44 85.00
  L 150.51 85.00
  L 150.40 84.99
  L 150.29 84.95
  L 150.20 84.90
  L 150.12 84.82
  L 150.05 84.73
  L 150.01 84.63
  L 149.99 84.52
  L 149.99 84.41
  L 150.01 84.34
  L 162.83 40.22
  L 163.48 37.82
  L 164.13 35.62
  L 164.78 33.62
  L 165.44 31.83
  L 166.09 30.22
  L 166.42 29.50
  L 166.76 28.82
  L 167.09 28.20
  L 167.42 27.62
  L 167.76 27.10
  L 168.09 26.62
  L 168.82 25.69
  L 169.58 24.79
  L 170.38 23.94
  L 171.21 23.12
  L 171.21 23.12
  L 172.13 22.30
  L 173.09 21.53
  L 174.09 20.80
  L 175.13 20.11
  L 176.21 19.47
  L 177.34 18.86
  L 178.50 18.31
  L 179.70 17.79
  L 180.13 17.63
  L 180.60 17.48
  L 181.64 17.21
  L 182.81 16.98
  L 184.12 16.80
  L 185.56 16.66
  L 187.14 16.57
  L 188.85 16.52
  L 190.70 16.51
  L 208.71 16.56
  Z
  M 171.88 59.51
  L 191.42 59.51
  L 191.54 59.50
  L 191.66 59.47
  L 191.77 59.41
  L 191.86 59.34
  L 191.94 59.25
  L 192.01 59.14
  L 192.05 59.03
  L 192.07 58.91
  L 194.09 31.49
  L 194.09 31.47
  L 194.08 31.34
  L 194.05 31.22
  L 193.99 31.10
  L 193.91 31.00
  L 193.81 30.92
  L 193.70 30.86
  L 193.58 30.82
  L 193.45 30.81
  L 184.09 30.81
  L 183.84 30.82
  L 183.59 30.86
  L 183.35 30.92
  L 183.11 31.01
  L 182.24 31.40
  L 181.44 31.83
  L 180.72 32.30
  L 180.08 32.79
  L 179.52 33.33
  L 179.26 33.61
  L 179.03 33.89
  L 178.82 34.19
  L 178.63 34.50
  L 178.45 34.81
  L 178.30 35.13
  L 178.30 35.13
  L 178.30 35.13
  L 178.30 35.13
  L 178.30 35.13
  L 178.15 35.51
  L 178.02 35.89
  L 176.51 41.12
  L 174.92 46.73
  L 173.26 52.69
  L 171.51 59.03
  L 171.50 59.08
  L 171.51 59.24
  L 171.59 59.38
  L 171.72 59.48
  L 171.88 59.51
  Z"
/>
<path d="
  M 212.10 84.30
  L 221.95 16.86
  L 221.99 16.74
  L 222.07 16.64
  L 222.18 16.57
  L 222.31 16.55
  L 258.44 16.55
  L 258.79 16.57
  L 259.13 16.62
  L 259.76 16.77
  L 260.38 16.94
  L 260.97 17.12
  L 261.55 17.32
  L 262.11 17.54
  L 262.65 17.77
  L 263.17 18.01
  L 263.67 18.28
  L 264.15 18.56
  L 264.62 18.85
  L 265.06 19.16
  L 265.49 19.49
  L 265.90 19.84
  L 266.29 20.20
  L 266.66 20.57
  L 267.01 20.96
  L 267.01 20.96
  L 267.01 20.96
  L 267.01 20.96
  L 267.01 20.96
  L 267.01 20.96
  L 267.51 21.59
  L 267.97 22.24
  L 268.38 22.94
  L 268.75 23.67
  L 269.08 24.44
  L 269.36 25.25
  L 269.60 26.09
  L 269.80 26.97
  L 269.89 27.56
  L 269.94 28.23
  L 269.96 28.98
  L 269.95 29.82
  L 269.89 30.74
  L 269.80 31.74
  L 269.68 32.83
  L 269.52 34.00
  L 268.79 38.83
  L 268.43 41.03
  L 268.31 41.52
  L 268.14 42.00
  L 267.04 44.69
  L 266.98 44.92
  L 266.98 45.17
  L 267.05 45.40
  L 267.18 45.60
  L 267.84 46.44
  L 268.15 46.86
  L 268.42 47.29
  L 268.69 47.74
  L 268.92 48.18
  L 269.15 48.63
  L 269.34 49.09
  L 269.57 49.69
  L 269.76 50.29
  L 269.92 50.90
  L 270.06 51.54
  L 270.16 52.20
  L 270.24 52.89
  L 270.29 53.59
  L 270.31 54.32
  L 270.30 55.06
  L 270.27 55.83
  L 270.21 56.65
  L 270.12 57.53
  L 269.88 59.46
  L 269.45 62.23
  L 269.11 64.35
  L 268.88 65.95
  L 268.72 67.01
  L 268.55 68.02
  L 268.36 69.00
  L 268.15 69.93
  L 267.92 70.81
  L 267.67 71.67
  L 267.40 72.50
  L 267.11 73.29
  L 266.81 74.05
  L 266.47 74.79
  L 266.12 75.50
  L 265.74 76.18
  L 265.35 76.83
  L 264.92 77.46
  L 264.48 78.07
  L 264.01 78.65
  L 263.33 79.40
  L 262.60 80.12
  L 261.83 80.79
  L 261.00 81.43
  L 260.12 82.04
  L 259.18 82.62
  L 258.18 83.17
  L 257.12 83.69
  L 256.75 83.85
  L 256.34 84.00
  L 255.45 84.27
  L 254.43 84.50
  L 253.30 84.69
  L 252.04 84.83
  L 250.67 84.94
  L 249.17 85.00
  L 247.56 85.02
  L 212.71 85.00
  L 212.58 84.99
  L 212.46 84.95
  L 212.35 84.89
  L 212.26 84.80
  L 212.18 84.70
  L 212.13 84.59
  L 212.10 84.47
  L 212.10 84.34
  L 212.10 84.34
  L 212.10 84.30
  Z
  M 232.48 40.05
  L 232.48 40.30
  L 232.52 40.44
  L 232.58 40.58
  L 232.66 40.70
  L 232.76 40.80
  L 232.88 40.89
  L 233.01 40.95
  L 233.15 40.99
  L 233.30 41.00
  L 253.71 41.00
  L 253.86 40.99
  L 254.00 40.95
  L 254.14 40.88
  L 254.26 40.80
  L 254.36 40.69
  L 254.44 40.57
  L 254.50 40.43
  L 254.53 40.29
  L 255.79 31.67
  L 255.80 31.49
  L 255.77 31.32
  L 255.70 31.15
  L 255.60 31.01
  L 255.47 30.89
  L 255.32 30.80
  L 255.15 30.74
  L 254.97 30.72
  L 234.56 30.72
  L 234.42 30.73
  L 234.28 30.77
  L 234.15 30.83
  L 234.03 30.91
  L 233.93 31.01
  L 233.84 31.13
  L 233.78 31.26
  L 233.74 31.39
  L 233.74 31.43
  L 232.48 40.05
  Z
  M 228.16 69.79
  L 228.15 69.97
  L 228.18 70.14
  L 228.25 70.30
  L 228.34 70.44
  L 228.47 70.56
  L 228.62 70.65
  L 228.78 70.70
  L 228.96 70.72
  L 253.46 70.72
  L 253.60 70.71
  L 253.74 70.67
  L 253.87 70.61
  L 253.99 70.52
  L 254.09 70.42
  L 254.17 70.30
  L 254.23 70.17
  L 254.26 70.03
  L 256.32 55.94
  L 256.33 55.72
  L 256.27 55.51
  L 256.16 55.32
  L 256.00 55.17
  L 255.89 55.10
  L 255.77 55.05
  L 255.65 55.02
  L 255.52 55.01
  L 231.01 55.01
  L 230.87 55.02
  L 230.73 55.06
  L 230.60 55.12
  L 230.49 55.20
  L 230.39 55.30
  L 230.31 55.42
  L 230.25 55.55
  L 230.21 55.68
  L 230.21 55.68
  L 230.21 55.70
  L 228.16 69.79
  Z"
/>
<path d="
  M 284.29 16.54
  L 297.59 16.54
  L 297.69 16.56
  L 297.79 16.61
  L 297.85 16.67
  L 297.89 16.74
  L 297.91 16.82
  L 297.91 16.91
  L 288.00 84.72
  L 287.96 84.82
  L 287.89 84.91
  L 287.80 84.97
  L 287.68 84.99
  L 274.38 84.99
  L 274.25 84.96
  L 274.14 84.88
  L 274.07 84.76
  L 274.06 84.62
  L 283.97 16.81
  L 284.01 16.71
  L 284.08 16.62
  L 284.17 16.56
  L 284.29 16.54
  Z"
/>
<path d="
  M 341.19 60.40
  L 347.53 16.96
  L 347.59 16.80
  L 347.70 16.66
  L 347.85 16.57
  L 348.02 16.54
  L 360.99 16.54
  L 361.02 16.54
  L 361.21 16.59
  L 361.36 16.71
  L 361.45 16.89
  L 361.46 17.08
  L 351.62 84.42
  L 351.59 84.54
  L 351.55 84.65
  L 351.48 84.75
  L 351.39 84.83
  L 351.30 84.91
  L 351.19 84.96
  L 351.07 84.99
  L 350.95 85.00
  L 333.64 85.00
  L 333.46 84.97
  L 333.30 84.89
  L 333.17 84.75
  L 333.09 84.59
  L 318.94 40.13
  L 318.87 40.03
  L 318.77 39.98
  L 318.65 39.99
  L 318.56 40.06
  L 318.51 40.17
  L 312.04 84.47
  L 311.97 84.68
  L 311.83 84.85
  L 311.64 84.96
  L 311.43 85.00
  L 298.60 85.00
  L 298.57 85.00
  L 298.46 84.98
  L 298.36 84.94
  L 298.28 84.88
  L 298.20 84.81
  L 298.14 84.72
  L 298.10 84.62
  L 298.09 84.52
  L 298.09 84.41
  L 307.92 17.11
  L 307.95 16.99
  L 308.00 16.89
  L 308.06 16.79
  L 308.15 16.70
  L 308.24 16.63
  L 308.35 16.58
  L 308.46 16.55
  L 308.58 16.54
  L 326.36 16.54
  L 326.58 16.57
  L 326.77 16.68
  L 326.92 16.83
  L 327.02 17.03
  L 340.83 60.43
  L 340.89 60.51
  L 340.97 60.56
  L 341.07 60.55
  L 341.15 60.49
  L 341.19 60.40
  Z"
/>
<path d="
  M 462.57 56.47
  L 462.54 56.67
  L 462.47 56.87
  L 462.36 57.04
  L 462.23 57.20
  L 462.06 57.32
  L 461.88 57.41
  L 461.68 57.47
  L 461.48 57.49
  L 457.87 57.49
  L 457.75 57.48
  L 457.62 57.44
  L 457.49 57.37
  L 457.39 57.27
  L 457.31 57.16
  L 457.25 57.03
  L 457.23 56.89
  L 457.23 56.75
  L 457.27 56.61
  L 457.49 55.97
  L 457.64 55.32
  L 457.74 54.64
  L 457.78 53.97
  L 457.76 53.28
  L 457.68 52.60
  L 457.53 51.92
  L 457.33 51.27
  L 457.08 50.63
  L 456.77 50.03
  L 456.41 49.47
  L 456.00 48.94
  L 455.56 48.47
  L 455.07 48.04
  L 454.55 47.68
  L 453.99 47.36
  L 453.49 47.15
  L 452.93 46.98
  L 452.30 46.84
  L 451.60 46.75
  L 450.85 46.69
  L 449.99 46.66
  L 449.02 46.67
  L 447.72 46.70
  L 446.18 46.74
  L 445.16 46.72
  L 444.69 46.73
  L 444.22 46.81
  L 443.57 47.00
  L 442.96 47.21
  L 442.38 47.46
  L 441.82 47.73
  L 441.30 48.03
  L 440.80 48.35
  L 440.34 48.71
  L 439.90 49.09
  L 439.54 49.44
  L 439.21 49.81
  L 438.89 50.20
  L 438.59 50.62
  L 438.32 51.06
  L 438.06 51.52
  L 437.82 52.00
  L 437.59 52.51
  L 437.39 53.04
  L 437.20 53.60
  L 437.03 54.18
  L 436.87 54.79
  L 436.73 55.43
  L 436.61 56.09
  L 436.41 57.52
  L 436.11 59.93
  L 435.67 63.20
  L 435.08 67.33
  L 434.34 72.31
  L 434.25 73.12
  L 434.21 73.89
  L 434.23 74.63
  L 434.30 75.33
  L 434.43 76.00
  L 434.62 76.64
  L 434.87 77.24
  L 435.17 77.81
  L 435.17 77.81
  L 435.17 77.81
  L 435.17 77.81
  L 435.17 77.81
  L 435.48 78.28
  L 435.83 78.73
  L 436.23 79.15
  L 436.67 79.54
  L 437.15 79.91
  L 437.68 80.25
  L 438.25 80.57
  L 438.86 80.86
  L 439.34 81.02
  L 439.93 81.15
  L 440.65 81.25
  L 441.48 81.31
  L 442.43 81.33
  L 443.50 81.31
  L 444.69 81.26
  L 446.00 81.18
  L 446.79 81.10
  L 447.53 80.97
  L 448.25 80.80
  L 448.93 80.59
  L 449.59 80.33
  L 450.21 80.03
  L 450.80 79.68
  L 451.36 79.30
  L 451.83 78.91
  L 452.27 78.48
  L 452.69 78.02
  L 453.08 77.54
  L 453.45 77.00
  L 453.78 76.45
  L 454.09 75.85
  L 454.36 75.22
  L 454.62 74.56
  L 454.84 73.87
  L 455.03 73.14
  L 455.19 72.39
  L 455.32 71.60
  L 455.42 70.78
  L 455.49 69.95
  L 455.53 69.08
  L 455.56 68.95
  L 455.64 68.84
  L 455.75 68.77
  L 455.88 68.74
  L 460.45 68.74
  L 460.53 68.76
  L 460.61 68.80
  L 460.65 68.88
  L 460.67 68.96
  L 460.67 68.96
  L 460.65 69.76
  L 460.60 70.54
  L 460.53 71.31
  L 460.44 72.06
  L 460.32 72.79
  L 460.18 73.50
  L 460.02 74.20
  L 459.83 74.89
  L 459.62 75.55
  L 459.39 76.20
  L 459.13 76.83
  L 458.85 77.45
  L 458.55 78.05
  L 458.22 78.63
  L 457.87 79.20
  L 457.50 79.75
  L 457.50 79.75
  L 457.50 79.75
  L 457.05 80.35
  L 456.58 80.93
  L 456.07 81.48
  L 455.53 82.02
  L 454.97 82.53
  L 454.37 83.03
  L 453.74 83.50
  L 453.09 83.95
  L 452.32 84.42
  L 451.49 84.85
  L 450.60 85.23
  L 449.66 85.56
  L 448.68 85.85
  L 447.66 86.09
  L 446.59 86.28
  L 445.49 86.42
  L 444.35 86.51
  L 443.18 86.55
  L 442.00 86.53
  L 440.81 86.46
  L 439.63 86.34
  L 438.46 86.16
  L 437.33 85.94
  L 436.24 85.67
  L 435.72 85.50
  L 435.22 85.27
  L 434.57 84.91
  L 433.96 84.53
  L 433.38 84.12
  L 432.85 83.69
  L 432.34 83.22
  L 431.88 82.74
  L 431.44 82.23
  L 431.05 81.70
  L 430.70 81.16
  L 430.39 80.59
  L 430.11 80.00
  L 429.86 79.39
  L 429.65 78.75
  L 429.47 78.09
  L 429.33 77.40
  L 429.22 76.69
  L 429.14 75.96
  L 429.10 75.20
  L 429.09 74.42
  L 429.11 73.61
  L 429.17 72.77
  L 429.26 71.92
  L 429.39 71.04
  L 429.55 70.13
  L 429.74 68.92
  L 430.06 66.68
  L 431.04 59.13
  L 431.30 57.30
  L 431.59 55.61
  L 431.91 54.07
  L 432.26 52.68
  L 432.64 51.43
  L 432.85 50.86
  L 433.06 50.33
  L 433.28 49.84
  L 433.50 49.38
  L 433.74 48.96
  L 433.98 48.58
  L 434.60 47.72
  L 435.26 46.92
  L 435.96 46.16
  L 436.71 45.46
  L 436.71 45.46
  L 436.71 45.46
  L 437.51 44.80
  L 438.35 44.19
  L 439.24 43.63
  L 440.17 43.12
  L 441.14 42.66
  L 442.16 42.25
  L 443.22 41.90
  L 444.33 41.59
  L 444.49 41.56
  L 444.66 41.55
  L 453.30 41.55
  L 453.62 41.57
  L 453.93 41.63
  L 454.88 41.90
  L 455.78 42.23
  L 456.62 42.59
  L 457.42 43.01
  L 458.16 43.47
  L 458.85 43.98
  L 459.48 44.53
  L 460.07 45.13
  L 460.07 45.13
  L 460.07 45.13
  L 460.64 45.82
  L 461.15 46.57
  L 461.60 47.37
  L 461.99 48.22
  L 462.33 49.13
  L 462.60 50.09
  L 462.82 51.10
  L 462.97 52.17
  L 463.00 52.72
  L 462.98 53.32
  L 462.91 53.99
  L 462.77 54.90
  L 462.63 55.82
  L 462.57 56.47
  Z"
/>
<path d="
  M 540.80 41.56
  L 549.36 41.54
  L 555.83 41.55
  L 560.21 41.57
  L 562.49 41.62
  L 563.06 41.66
  L 563.60 41.74
  L 564.11 41.85
  L 564.60 41.99
  L 565.07 42.16
  L 565.51 42.37
  L 565.93 42.61
  L 566.32 42.88
  L 566.32 42.88
  L 566.32 42.88
  L 566.83 43.31
  L 567.28 43.80
  L 567.69 44.35
  L 568.05 44.96
  L 568.36 45.63
  L 568.63 46.37
  L 568.85 47.16
  L 569.03 48.02
  L 569.05 48.21
  L 569.04 48.41
  L 567.30 60.26
  L 567.28 60.38
  L 567.24 60.50
  L 567.02 61.04
  L 566.77 61.56
  L 566.77 61.56
  L 566.45 62.15
  L 566.09 62.71
  L 565.70 63.26
  L 565.28 63.78
  L 564.81 64.29
  L 564.32 64.78
  L 563.78 65.26
  L 563.21 65.71
  L 563.00 65.91
  L 562.85 66.15
  L 562.75 66.42
  L 562.72 66.71
  L 562.72 85.54
  L 562.69 85.71
  L 562.59 85.86
  L 562.44 85.96
  L 562.27 85.99
  L 558.04 85.99
  L 557.88 85.96
  L 557.75 85.87
  L 557.66 85.74
  L 557.63 85.58
  L 557.63 67.62
  L 557.60 67.49
  L 557.53 67.38
  L 557.43 67.31
  L 557.30 67.28
  L 557.30 67.28
  L 542.23 67.28
  L 542.04 67.31
  L 541.87 67.41
  L 541.75 67.57
  L 541.69 67.75
  L 539.06 85.78
  L 539.03 85.87
  L 538.98 85.94
  L 538.90 85.98
  L 538.81 86.00
  L 534.14 86.00
  L 534.12 86.00
  L 534.01 85.97
  L 533.93 85.89
  L 533.88 85.79
  L 533.87 85.68
  L 540.24 42.05
  L 540.30 41.86
  L 540.43 41.70
  L 540.60 41.60
  L 540.80 41.56
  Z
  M 543.07 61.93
  L 545.69 61.98
  L 549.05 62.01
  L 553.17 61.99
  L 558.04 61.94
  L 558.69 61.91
  L 559.28 61.85
  L 559.80 61.76
  L 560.28 61.63
  L 560.71 61.46
  L 561.08 61.26
  L 561.42 61.01
  L 561.70 60.73
  L 561.95 60.39
  L 562.15 59.99
  L 562.30 59.56
  L 562.40 59.07
  L 563.66 50.08
  L 563.71 49.63
  L 563.73 49.20
  L 563.71 48.80
  L 563.65 48.43
  L 563.55 48.10
  L 563.42 47.80
  L 563.26 47.55
  L 563.05 47.32
  L 562.90 47.19
  L 562.72 47.08
  L 562.54 46.98
  L 562.34 46.90
  L 562.12 46.84
  L 561.88 46.80
  L 561.38 46.76
  L 551.87 46.75
  L 545.11 46.79
  L 545.00 46.80
  L 544.89 46.83
  L 544.78 46.88
  L 544.69 46.94
  L 544.61 47.03
  L 544.55 47.12
  L 544.50 47.23
  L 544.48 47.34
  L 542.50 61.24
  L 542.50 61.36
  L 542.52 61.48
  L 542.56 61.59
  L 542.63 61.70
  L 542.71 61.79
  L 542.81 61.85
  L 542.92 61.90
  L 543.04 61.92
  L 543.07 61.93
  Z"
/>
<path d="
  M 496.20 42.41
  L 493.04 85.27
  L 493.01 85.42
  L 492.96 85.56
  L 492.89 85.69
  L 492.79 85.80
  L 492.67 85.89
  L 492.54 85.95
  L 492.40 86.00
  L 492.25 86.01
  L 488.62 86.01
  L 488.60 86.01
  L 488.47 85.99
  L 488.35 85.95
  L 488.24 85.88
  L 488.14 85.79
  L 488.07 85.69
  L 488.01 85.57
  L 487.98 85.44
  L 487.98 85.31
  L 488.57 77.25
  L 488.55 77.05
  L 488.45 76.88
  L 488.29 76.77
  L 488.10 76.72
  L 488.08 76.72
  L 470.27 76.72
  L 470.03 76.76
  L 469.81 76.87
  L 469.72 76.95
  L 469.64 77.05
  L 469.58 77.16
  L 469.54 77.27
  L 467.13 85.77
  L 467.09 85.86
  L 467.02 85.93
  L 466.94 85.97
  L 466.84 85.99
  L 462.08 85.99
  L 462.01 85.98
  L 461.95 85.93
  L 461.92 85.87
  L 461.92 85.80
  L 461.92 85.78
  L 468.16 63.31
  L 469.82 57.30
  L 470.50 54.78
  L 470.90 53.25
  L 471.31 51.85
  L 471.74 50.58
  L 472.19 49.45
  L 472.65 48.46
  L 473.12 47.60
  L 473.36 47.22
  L 473.61 46.87
  L 473.86 46.56
  L 474.11 46.28
  L 474.61 45.79
  L 475.10 45.32
  L 475.60 44.89
  L 476.10 44.48
  L 476.59 44.10
  L 477.09 43.75
  L 477.59 43.43
  L 478.09 43.15
  L 478.59 42.88
  L 479.08 42.65
  L 479.58 42.45
  L 480.08 42.28
  L 480.58 42.14
  L 481.08 42.02
  L 481.58 41.94
  L 482.08 41.88
  L 483.21 41.80
  L 484.50 41.75
  L 485.95 41.70
  L 487.56 41.68
  L 491.27 41.69
  L 495.61 41.76
  L 495.62 41.76
  L 495.74 41.78
  L 495.85 41.82
  L 495.96 41.88
  L 496.05 41.96
  L 496.12 42.06
  L 496.17 42.17
  L 496.20 42.29
  L 496.20 42.41
  Z
  M 471.53 71.54
  L 488.29 71.59
  L 488.49 71.55
  L 488.67 71.44
  L 488.79 71.27
  L 488.85 71.07
  L 490.65 47.56
  L 490.65 47.54
  L 490.64 47.43
  L 490.62 47.33
  L 490.57 47.23
  L 490.50 47.14
  L 490.41 47.07
  L 490.32 47.02
  L 490.21 46.99
  L 490.10 46.97
  L 482.07 46.95
  L 481.86 46.96
  L 481.65 46.99
  L 481.44 47.05
  L 481.23 47.12
  L 480.48 47.46
  L 479.80 47.82
  L 479.18 48.22
  L 478.63 48.64
  L 478.15 49.10
  L 477.73 49.58
  L 477.38 50.10
  L 477.09 50.64
  L 477.09 50.64
  L 477.09 50.64
  L 477.09 50.64
  L 476.96 50.96
  L 476.86 51.29
  L 475.55 55.78
  L 474.17 60.58
  L 471.21 71.12
  L 471.20 71.16
  L 471.22 71.30
  L 471.28 71.42
  L 471.39 71.51
  L 471.53 71.54
  Z"
/>
<path d="
  M 497.99 85.27
  L 504.30 42.02
  L 504.34 41.90
  L 504.42 41.81
  L 504.53 41.74
  L 504.66 41.72
  L 512.94 41.73
  L 522.22 41.69
  L 523.65 41.71
  L 524.91 41.81
  L 525.49 41.88
  L 526.04 41.97
  L 526.55 42.07
  L 527.04 42.20
  L 527.50 42.34
  L 527.94 42.51
  L 528.35 42.69
  L 528.74 42.90
  L 529.09 43.12
  L 529.43 43.36
  L 529.74 43.63
  L 530.03 43.91
  L 530.36 44.31
  L 530.67 44.75
  L 530.93 45.22
  L 531.16 45.74
  L 531.35 46.29
  L 531.51 46.88
  L 531.63 47.51
  L 531.71 48.18
  L 531.71 48.51
  L 530.49 57.41
  L 530.41 57.81
  L 530.29 58.20
  L 530.13 58.57
  L 529.93 58.93
  L 529.25 60.00
  L 529.16 60.17
  L 529.10 60.34
  L 529.08 60.53
  L 529.09 60.72
  L 529.13 60.90
  L 529.20 61.07
  L 529.30 61.23
  L 529.43 61.37
  L 529.80 61.72
  L 530.14 62.08
  L 530.45 62.46
  L 530.72 62.84
  L 530.96 63.23
  L 531.17 63.63
  L 531.34 64.04
  L 531.48 64.46
  L 531.48 64.46
  L 531.48 64.46
  L 531.48 64.46
  L 531.48 64.46
  L 531.48 64.46
  L 531.61 65.01
  L 531.69 65.58
  L 531.71 66.16
  L 531.67 66.76
  L 531.41 69.13
  L 531.08 71.83
  L 530.67 74.87
  L 530.19 78.23
  L 530.10 78.68
  L 529.97 79.12
  L 529.68 79.86
  L 529.36 80.55
  L 529.02 81.20
  L 528.65 81.79
  L 528.25 82.34
  L 527.82 82.85
  L 527.36 83.32
  L 526.88 83.73
  L 526.42 84.07
  L 525.94 84.38
  L 525.44 84.65
  L 524.91 84.90
  L 524.35 85.12
  L 523.74 85.31
  L 523.12 85.48
  L 522.45 85.62
  L 521.76 85.74
  L 521.04 85.83
  L 520.25 85.91
  L 519.40 85.96
  L 517.51 86.02
  L 514.77 86.02
  L 513.35 86.02
  L 498.62 86.00
  L 498.49 85.99
  L 498.37 85.95
  L 498.25 85.88
  L 498.15 85.80
  L 498.07 85.69
  L 498.02 85.57
  L 497.99 85.45
  L 497.98 85.32
  L 497.99 85.27
  Z
  M 508.59 47.46
  L 506.92 58.89
  L 506.92 58.93
  L 506.92 59.05
  L 506.95 59.16
  L 506.99 59.27
  L 507.06 59.36
  L 507.15 59.44
  L 507.25 59.49
  L 507.36 59.53
  L 507.48 59.54
  L 518.12 59.56
  L 520.90 59.54
  L 521.99 59.52
  L 522.47 59.44
  L 522.92 59.33
  L 523.33 59.19
  L 523.70 59.02
  L 524.04 58.83
  L 524.34 58.62
  L 524.60 58.37
  L 524.83 58.10
  L 524.83 58.10
  L 524.83 58.10
  L 525.02 57.80
  L 525.17 57.48
  L 525.29 57.13
  L 525.37 56.75
  L 526.48 49.67
  L 526.51 49.43
  L 526.51 49.20
  L 526.48 48.96
  L 526.44 48.73
  L 526.37 48.50
  L 526.27 48.28
  L 526.16 48.08
  L 526.02 47.88
  L 525.86 47.70
  L 525.69 47.54
  L 525.50 47.40
  L 525.30 47.27
  L 525.08 47.17
  L 524.86 47.09
  L 524.63 47.04
  L 524.39 47.01
  L 524.39 47.01
  L 524.21 47.00
  L 509.12 47.00
  L 508.93 47.03
  L 508.77 47.13
  L 508.65 47.28
  L 508.59 47.46
  Z
  M 504.61 80.68
  L 507.37 80.75
  L 510.93 80.79
  L 515.28 80.79
  L 520.42 80.75
  L 521.11 80.73
  L 521.73 80.66
  L 522.29 80.57
  L 522.79 80.43
  L 523.25 80.25
  L 523.64 80.04
  L 524.00 79.78
  L 524.30 79.48
  L 524.57 79.12
  L 524.78 78.71
  L 524.93 78.26
  L 525.04 77.74
  L 526.41 68.24
  L 526.47 67.76
  L 526.48 67.31
  L 526.46 66.89
  L 526.40 66.50
  L 526.30 66.15
  L 526.17 65.84
  L 525.99 65.56
  L 525.78 65.32
  L 525.61 65.19
  L 525.43 65.06
  L 525.24 64.97
  L 525.02 64.88
  L 524.79 64.82
  L 524.54 64.77
  L 524.01 64.73
  L 513.96 64.68
  L 506.82 64.69
  L 506.70 64.70
  L 506.59 64.73
  L 506.48 64.78
  L 506.38 64.85
  L 506.30 64.94
  L 506.23 65.04
  L 506.18 65.15
  L 506.15 65.27
  L 504.01 79.95
  L 504.00 80.08
  L 504.03 80.21
  L 504.07 80.33
  L 504.14 80.44
  L 504.23 80.53
  L 504.33 80.60
  L 504.45 80.65
  L 504.58 80.68
  L 504.58 80.68
  L 504.61 80.68
  Z"
/>
<path d="
  M 600.61 41.76
  L 600.62 41.76
  L 600.74 41.78
  L 600.85 41.82
  L 600.96 41.88
  L 601.05 41.96
  L 601.12 42.06
  L 601.17 42.17
  L 601.20 42.29
  L 601.20 42.41
  L 598.04 85.27
  L 598.02 85.42
  L 597.96 85.56
  L 597.89 85.68
  L 597.79 85.80
  L 597.67 85.89
  L 597.54 85.95
  L 597.40 85.99
  L 597.25 86.01
  L 593.62 86.01
  L 593.60 86.01
  L 593.47 85.99
  L 593.35 85.95
  L 593.24 85.88
  L 593.14 85.79
  L 593.07 85.69
  L 593.01 85.57
  L 592.98 85.44
  L 592.98 85.31
  L 593.57 77.25
  L 593.55 77.05
  L 593.45 76.88
  L 593.29 76.77
  L 593.10 76.72
  L 593.08 76.72
  L 575.27 76.72
  L 575.03 76.76
  L 574.81 76.87
  L 574.72 76.95
  L 574.64 77.05
  L 574.58 77.16
  L 574.54 77.27
  L 572.13 85.77
  L 572.09 85.86
  L 572.03 85.93
  L 571.94 85.97
  L 571.84 85.99
  L 567.08 85.99
  L 567.01 85.97
  L 566.96 85.93
  L 566.92 85.87
  L 566.92 85.80
  L 566.92 85.78
  L 573.17 63.31
  L 574.82 57.30
  L 575.50 54.78
  L 575.90 53.25
  L 576.32 51.85
  L 576.75 50.58
  L 577.19 49.45
  L 577.65 48.46
  L 578.12 47.60
  L 578.36 47.22
  L 578.61 46.87
  L 578.86 46.56
  L 579.11 46.28
  L 579.61 45.79
  L 580.10 45.32
  L 580.60 44.89
  L 581.10 44.48
  L 581.60 44.10
  L 582.09 43.76
  L 582.59 43.44
  L 583.09 43.15
  L 583.59 42.89
  L 584.09 42.66
  L 584.58 42.45
  L 585.08 42.28
  L 585.58 42.14
  L 586.08 42.02
  L 586.58 41.94
  L 587.08 41.88
  L 588.21 41.81
  L 589.50 41.75
  L 590.95 41.71
  L 592.56 41.68
  L 596.27 41.69
  L 600.61 41.76
  Z
  M 576.53 71.53
  L 593.29 71.59
  L 593.49 71.55
  L 593.67 71.44
  L 593.79 71.27
  L 593.85 71.07
  L 595.65 47.56
  L 595.65 47.54
  L 595.65 47.43
  L 595.62 47.33
  L 595.57 47.23
  L 595.50 47.14
  L 595.42 47.07
  L 595.32 47.02
  L 595.21 46.99
  L 595.10 46.97
  L 587.08 46.95
  L 586.86 46.96
  L 586.65 46.99
  L 586.44 47.05
  L 586.23 47.12
  L 585.48 47.46
  L 584.80 47.82
  L 584.18 48.22
  L 583.63 48.64
  L 583.15 49.10
  L 582.73 49.58
  L 582.38 50.10
  L 582.10 50.64
  L 581.97 50.96
  L 581.86 51.29
  L 580.55 55.78
  L 579.17 60.58
  L 576.21 71.12
  L 576.20 71.16
  L 576.21 71.30
  L 576.28 71.42
  L 576.39 71.50
  L 576.53 71.53
  Z"
/>
<path d="
  M 633.00 81.09
  L 632.32 85.73
  L 632.26 85.87
  L 632.15 85.97
  L 632.00 86.00
  L 603.19 86.00
  L 603.06 85.97
  L 602.95 85.89
  L 602.88 85.77
  L 602.87 85.63
  L 609.24 42.01
  L 609.28 41.91
  L 609.35 41.82
  L 609.45 41.76
  L 609.56 41.74
  L 614.04 41.74
  L 614.17 41.77
  L 614.28 41.85
  L 614.35 41.97
  L 614.36 42.11
  L 608.77 80.35
  L 608.78 80.49
  L 608.85 80.61
  L 608.96 80.69
  L 609.09 80.72
  L 632.68 80.72
  L 632.79 80.74
  L 632.89 80.80
  L 632.98 80.93
  L 633.00 81.09
  Z"
/>
</g>
<g fill="#d95c1a">
<path d="
  M 37.39 62.88
  L 37.18 62.92
  L 36.87 63.03
  L 35.78 63.50
  L 34.71 63.97
  L 33.91 64.29
  L 33.23 64.52
  L 32.65 64.65
  L 31.98 64.75
  L 31.32 64.81
  L 30.67 64.85
  L 30.04 64.85
  L 29.41 64.81
  L 28.80 64.75
  L 28.20 64.65
  L 27.62 64.51
  L 27.05 64.35
  L 26.51 64.15
  L 25.97 63.92
  L 25.46 63.66
  L 24.96 63.37
  L 24.49 63.05
  L 24.04 62.70
  L 23.62 62.32
  L 23.23 61.92
  L 22.87 61.50
  L 22.53 61.06
  L 22.22 60.59
  L 21.94 60.11
  L 21.69 59.61
  L 21.47 59.09
  L 21.29 58.56
  L 21.14 58.02
  L 21.02 57.47
  L 20.93 56.91
  L 20.88 56.35
  L 20.86 55.78
  L 20.87 55.21
  L 20.93 54.64
  L 21.01 54.08
  L 21.13 53.53
  L 21.28 52.98
  L 21.46 52.45
  L 21.67 51.93
  L 21.91 51.42
  L 22.19 50.92
  L 22.49 50.44
  L 22.82 49.96
  L 23.18 49.51
  L 23.57 49.07
  L 23.98 48.65
  L 24.42 48.25
  L 24.88 47.87
  L 25.38 47.50
  L 25.89 47.16
  L 26.43 46.83
  L 26.46 46.81
  L 26.56 46.74
  L 26.64 46.64
  L 26.70 46.53
  L 26.73 46.41
  L 26.75 46.28
  L 26.73 46.15
  L 26.69 46.03
  L 26.63 45.92
  L 26.26 45.37
  L 25.91 44.82
  L 25.60 44.25
  L 25.33 43.68
  L 25.08 43.11
  L 24.87 42.53
  L 24.69 41.95
  L 24.55 41.36
  L 24.44 40.79
  L 24.36 40.21
  L 24.32 39.63
  L 24.32 39.06
  L 24.35 38.49
  L 24.42 37.92
  L 24.52 37.37
  L 24.66 36.83
  L 24.85 36.23
  L 25.08 35.65
  L 25.36 35.08
  L 25.68 34.53
  L 26.03 34.00
  L 26.43 33.48
  L 26.86 32.99
  L 27.34 32.51
  L 27.89 32.02
  L 28.45 31.57
  L 29.02 31.17
  L 29.61 30.82
  L 30.20 30.52
  L 30.80 30.27
  L 31.41 30.06
  L 32.04 29.91
  L 32.04 29.91
  L 32.04 29.91
  L 32.04 29.91
  L 32.55 29.81
  L 33.06 29.75
  L 33.59 29.72
  L 34.12 29.72
  L 34.65 29.76
  L 35.20 29.82
  L 35.74 29.92
  L 36.30 30.04
  L 36.86 30.20
  L 37.43 30.39
  L 38.01 30.61
  L 38.59 30.86
  L 39.18 31.14
  L 39.78 31.46
  L 40.38 31.80
  L 40.99 32.18
  L 41.19 32.33
  L 41.36 32.51
  L 46.95 38.99
  L 47.05 39.05
  L 47.16 39.05
  L 47.24 38.99
  L 47.29 38.90
  L 47.28 38.79
  L 46.98 38.04
  L 46.61 37.22
  L 45.60 35.10
  L 44.76 33.38
  L 44.19 32.11
  L 43.74 30.95
  L 43.39 29.87
  L 43.25 29.33
  L 43.14 28.81
  L 43.04 28.28
  L 42.98 27.77
  L 42.93 27.26
  L 42.91 26.76
  L 42.92 26.27
  L 42.95 25.77
  L 43.00 25.31
  L 43.07 24.84
  L 43.16 24.38
  L 43.27 23.92
  L 43.44 23.34
  L 43.63 22.78
  L 43.85 22.23
  L 44.08 21.71
  L 44.34 21.20
  L 44.63 20.72
  L 44.93 20.25
  L 45.25 19.81
  L 45.60 19.39
  L 45.96 18.99
  L 46.35 18.61
  L 46.75 18.26
  L 47.17 17.94
  L 47.61 17.64
  L 48.06 17.37
  L 48.53 17.12
  L 48.96 16.93
  L 49.40 16.75
  L 49.84 16.60
  L 50.30 16.48
  L 50.76 16.37
  L 51.23 16.29
  L 51.70 16.24
  L 52.17 16.21
  L 52.65 16.20
  L 53.13 16.22
  L 53.61 16.26
  L 54.09 16.32
  L 54.56 16.41
  L 55.03 16.52
  L 55.49 16.66
  L 55.96 16.81
  L 56.40 16.99
  L 56.84 17.19
  L 57.28 17.42
  L 57.71 17.66
  L 58.12 17.93
  L 58.53 18.21
  L 58.91 18.52
  L 59.29 18.84
  L 59.65 19.18
  L 60.00 19.54
  L 60.34 19.91
  L 60.66 20.31
  L 60.96 20.72
  L 61.25 21.14
  L 61.52 21.58
  L 61.78 22.04
  L 61.82 22.12
  L 61.95 22.27
  L 62.11 22.40
  L 62.29 22.49
  L 62.49 22.54
  L 62.69 22.55
  L 62.89 22.52
  L 63.08 22.45
  L 63.25 22.34
  L 63.95 21.83
  L 64.70 21.38
  L 65.47 21.00
  L 66.28 20.69
  L 66.93 20.50
  L 67.59 20.36
  L 68.27 20.26
  L 68.95 20.20
  L 69.63 20.20
  L 70.31 20.24
  L 70.98 20.33
  L 71.64 20.47
  L 72.30 20.65
  L 72.93 20.88
  L 73.54 21.15
  L 74.13 21.47
  L 74.69 21.82
  L 75.22 22.21
  L 75.72 22.64
  L 76.19 23.11
  L 76.53 23.50
  L 76.85 23.91
  L 77.14 24.33
  L 77.41 24.78
  L 77.70 25.32
  L 77.95 25.86
  L 78.16 26.40
  L 78.34 26.93
  L 78.48 27.48
  L 78.58 28.02
  L 78.64 28.57
  L 78.67 29.11
  L 78.67 29.53
  L 78.64 29.95
  L 78.59 30.37
  L 78.52 30.79
  L 78.43 31.22
  L 78.32 31.64
  L 78.18 32.07
  L 78.02 32.49
  L 77.84 32.92
  L 77.63 33.34
  L 77.16 34.19
  L 76.60 35.04
  L 75.95 35.89
  L 75.21 36.75
  L 74.39 37.60
  L 73.48 38.45
  L 72.47 39.31
  L 71.38 40.17
  L 70.19 41.05
  L 68.88 41.96
  L 67.41 42.92
  L 67.40 42.93
  L 67.34 42.99
  L 67.31 43.08
  L 67.32 43.18
  L 67.36 43.26
  L 67.58 43.51
  L 67.60 43.51
  L 68.70 43.05
  L 69.76 42.64
  L 70.78 42.26
  L 71.75 41.93
  L 72.67 41.63
  L 73.55 41.38
  L 74.39 41.17
  L 75.18 41.00
  L 76.12 40.85
  L 77.05 40.78
  L 77.94 40.79
  L 78.38 40.83
  L 78.81 40.88
  L 79.24 40.95
  L 79.65 41.05
  L 80.06 41.16
  L 80.47 41.29
  L 80.86 41.44
  L 81.23 41.61
  L 81.61 41.80
  L 81.97 42.00
  L 82.34 42.24
  L 82.70 42.50
  L 83.04 42.78
  L 83.38 43.08
  L 83.69 43.39
  L 83.99 43.73
  L 84.27 44.08
  L 84.54 44.45
  L 84.79 44.83
  L 85.02 45.23
  L 85.23 45.64
  L 85.43 46.06
  L 85.60 46.50
  L 85.75 46.94
  L 85.88 47.40
  L 85.99 47.86
  L 86.08 48.32
  L 86.14 48.79
  L 86.18 49.26
  L 86.21 49.74
  L 86.20 50.21
  L 86.18 50.68
  L 86.13 51.16
  L 86.06 51.63
  L 85.97 52.09
  L 85.86 52.55
  L 85.73 53.00
  L 85.57 53.44
  L 85.40 53.87
  L 85.20 54.30
  L 84.98 54.71
  L 84.75 55.11
  L 84.33 55.72
  L 83.87 56.30
  L 83.35 56.85
  L 82.80 57.35
  L 82.20 57.82
  L 81.57 58.25
  L 80.88 58.64
  L 80.17 58.99
  L 80.14 59.01
  L 80.01 59.11
  L 79.94 59.26
  L 79.94 59.43
  L 80.00 59.58
  L 80.49 60.37
  L 80.91 61.18
  L 81.25 61.99
  L 81.52 62.81
  L 81.71 63.64
  L 81.83 64.47
  L 81.87 65.29
  L 81.83 66.12
  L 81.77 66.62
  L 81.68 67.11
  L 81.56 67.60
  L 81.41 68.08
  L 81.24 68.55
  L 81.04 69.02
  L 80.82 69.48
  L 80.57 69.92
  L 80.29 70.36
  L 79.99 70.79
  L 79.66 71.20
  L 79.32 71.59
  L 78.95 71.97
  L 78.56 72.33
  L 78.16 72.67
  L 77.73 73.00
  L 77.30 73.30
  L 76.84 73.57
  L 76.38 73.83
  L 75.90 74.06
  L 75.41 74.27
  L 74.91 74.45
  L 74.41 74.61
  L 73.90 74.74
  L 73.39 74.84
  L 72.87 74.92
  L 72.36 74.96
  L 71.85 74.99
  L 71.33 74.98
  L 70.82 74.95
  L 70.31 74.89
  L 69.81 74.80
  L 69.03 74.61
  L 68.28 74.36
  L 67.54 74.04
  L 66.82 73.66
  L 66.13 73.21
  L 65.47 72.71
  L 64.82 72.15
  L 64.21 71.53
  L 62.04 69.18
  L 61.95 69.15
  L 61.80 69.17
  L 61.68 69.26
  L 61.61 69.38
  L 61.61 69.53
  L 61.70 69.81
  L 61.87 70.26
  L 62.49 71.67
  L 62.78 72.37
  L 63.01 73.09
  L 63.17 73.82
  L 63.26 74.56
  L 63.29 75.16
  L 63.28 75.75
  L 63.22 76.35
  L 63.13 76.94
  L 62.99 77.53
  L 62.81 78.11
  L 62.58 78.68
  L 62.32 79.24
  L 62.03 79.78
  L 61.69 80.30
  L 61.32 80.80
  L 60.92 81.27
  L 60.49 81.71
  L 60.03 82.13
  L 59.55 82.51
  L 59.04 82.85
  L 58.49 83.18
  L 57.94 83.46
  L 57.39 83.71
  L 56.83 83.91
  L 56.28 84.07
  L 55.72 84.20
  L 55.16 84.28
  L 54.60 84.32
  L 54.60 84.32
  L 54.60 84.32
  L 54.60 84.32
  L 54.60 84.32
  L 53.82 84.31
  L 53.04 84.22
  L 52.26 84.05
  L 51.47 83.80
  L 50.68 83.48
  L 49.89 83.07
  L 49.09 82.59
  L 48.29 82.03
  L 48.26 82.01
  L 48.11 81.96
  L 47.96 81.98
  L 47.82 82.05
  L 47.73 82.18
  L 46.10 85.77
  L 46.00 85.96
  L 45.87 86.13
  L 45.72 86.28
  L 45.56 86.40
  L 45.37 86.51
  L 45.17 86.58
  L 44.96 86.62
  L 44.75 86.64
  L 40.24 86.64
  L 40.11 86.63
  L 39.99 86.58
  L 39.88 86.51
  L 39.79 86.42
  L 39.72 86.32
  L 39.67 86.19
  L 39.66 86.07
  L 39.67 85.94
  L 39.67 85.94
  L 39.71 85.82
  L 42.00 80.78
  L 42.03 80.61
  L 41.99 80.45
  L 41.88 80.32
  L 41.72 80.25
  L 41.63 80.25
  L 40.85 80.26
  L 40.07 80.21
  L 39.33 80.09
  L 38.60 79.91
  L 37.90 79.67
  L 37.23 79.37
  L 36.59 79.01
  L 35.99 78.60
  L 35.67 78.34
  L 35.36 78.07
  L 35.07 77.78
  L 34.80 77.48
  L 34.54 77.16
  L 34.29 76.83
  L 34.07 76.49
  L 33.86 76.13
  L 33.67 75.77
  L 33.49 75.39
  L 33.34 75.01
  L 33.20 74.62
  L 33.09 74.22
  L 33.00 73.82
  L 32.92 73.41
  L 32.87 73.00
  L 32.83 72.59
  L 32.82 72.18
  L 32.83 71.77
  L 32.85 71.36
  L 32.90 70.94
  L 32.97 70.53
  L 33.06 70.12
  L 33.17 69.72
  L 33.29 69.32
  L 33.44 68.93
  L 33.79 68.16
  L 34.22 67.41
  L 34.72 66.70
  L 35.69 65.46
  L 36.49 64.49
  L 37.12 63.80
  L 37.37 63.55
  L 37.57 63.38
  L 37.66 63.27
  L 37.68 63.13
  L 37.63 63.00
  L 37.52 62.91
  L 37.52 62.91
  L 37.39 62.88
  Z"
/>
<path d="
  M 711.00 47.18
  L 711.00 49.39
  L 710.56 51.85
  L 710.17 54.31
  L 709.82 56.79
  L 709.52 59.27
  L 709.46 59.67
  L 709.37 60.07
  L 709.26 60.47
  L 709.11 60.87
  L 708.94 61.28
  L 708.74 61.68
  L 708.51 62.09
  L 708.25 62.49
  L 707.96 62.90
  L 707.64 63.31
  L 707.29 63.72
  L 706.92 64.13
  L 706.08 64.95
  L 705.13 65.78
  L 704.96 65.96
  L 704.83 66.17
  L 704.75 66.40
  L 704.72 66.65
  L 704.72 85.54
  L 704.69 85.71
  L 704.59 85.86
  L 704.44 85.96
  L 704.27 85.99
  L 700.03 85.99
  L 699.88 85.96
  L 699.75 85.88
  L 699.66 85.75
  L 699.63 85.60
  L 699.63 85.60
  L 699.63 85.60
  L 699.63 67.62
  L 699.60 67.49
  L 699.53 67.38
  L 699.42 67.31
  L 699.29 67.28
  L 684.24 67.28
  L 684.05 67.32
  L 683.88 67.42
  L 683.75 67.57
  L 683.69 67.76
  L 681.06 85.78
  L 681.03 85.87
  L 680.98 85.94
  L 680.90 85.98
  L 680.81 86.00
  L 676.14 86.00
  L 676.12 86.00
  L 676.01 85.97
  L 675.93 85.89
  L 675.88 85.79
  L 675.87 85.68
  L 682.24 42.10
  L 682.30 41.92
  L 682.41 41.78
  L 682.57 41.68
  L 682.76 41.64
  L 687.73 41.56
  L 692.76 41.53
  L 697.85 41.53
  L 703.00 41.57
  L 703.90 41.61
  L 704.75 41.71
  L 705.55 41.86
  L 706.30 42.07
  L 707.00 42.34
  L 707.65 42.66
  L 708.25 43.04
  L 708.79 43.47
  L 708.79 43.47
  L 708.79 43.47
  L 708.79 43.47
  L 709.17 43.83
  L 709.51 44.22
  L 709.83 44.64
  L 710.11 45.08
  L 710.38 45.56
  L 710.61 46.07
  L 710.82 46.61
  L 711.00 47.18
  Z
  M 685.07 61.92
  L 687.69 61.98
  L 691.05 62.00
  L 695.17 61.99
  L 700.03 61.94
  L 700.68 61.91
  L 701.27 61.85
  L 701.80 61.76
  L 702.28 61.63
  L 702.71 61.46
  L 703.08 61.25
  L 703.42 61.00
  L 703.70 60.72
  L 703.95 60.38
  L 704.15 59.99
  L 704.30 59.56
  L 704.39 59.07
  L 705.66 50.08
  L 705.71 49.63
  L 705.72 49.19
  L 705.70 48.80
  L 705.64 48.43
  L 705.55 48.10
  L 705.42 47.80
  L 705.25 47.54
  L 705.05 47.32
  L 704.89 47.19
  L 704.72 47.07
  L 704.53 46.98
  L 704.33 46.90
  L 704.12 46.84
  L 703.88 46.80
  L 703.37 46.76
  L 693.87 46.75
  L 687.11 46.79
  L 686.99 46.80
  L 686.89 46.83
  L 686.78 46.88
  L 686.69 46.94
  L 686.61 47.03
  L 686.55 47.12
  L 686.50 47.23
  L 686.48 47.34
  L 684.50 61.24
  L 684.50 61.36
  L 684.52 61.48
  L 684.56 61.59
  L 684.63 61.70
  L 684.71 61.78
  L 684.81 61.85
  L 684.92 61.90
  L 685.04 61.92
  L 685.07 61.92
  Z"
/>
<path d="
  M 640.61 86.00
  L 640.48 85.98
  L 640.36 85.94
  L 640.24 85.88
  L 640.14 85.79
  L 640.07 85.69
  L 640.01 85.57
  L 639.98 85.44
  L 639.98 85.31
  L 639.98 85.31
  L 639.98 85.27
  L 646.30 42.02
  L 646.34 41.90
  L 646.43 41.80
  L 646.54 41.74
  L 646.66 41.72
  L 654.94 41.73
  L 664.22 41.69
  L 665.65 41.72
  L 666.91 41.81
  L 667.49 41.88
  L 668.04 41.97
  L 668.55 42.08
  L 669.04 42.21
  L 669.50 42.35
  L 669.94 42.52
  L 670.35 42.70
  L 670.74 42.90
  L 671.09 43.13
  L 671.43 43.37
  L 671.74 43.63
  L 672.03 43.92
  L 672.36 44.32
  L 672.67 44.76
  L 672.93 45.23
  L 673.16 45.75
  L 673.35 46.29
  L 673.51 46.89
  L 673.63 47.51
  L 673.71 48.19
  L 673.71 48.52
  L 672.49 57.42
  L 672.41 57.82
  L 672.29 58.21
  L 672.13 58.58
  L 671.93 58.94
  L 671.25 60.01
  L 671.16 60.17
  L 671.10 60.35
  L 671.07 60.53
  L 671.08 60.72
  L 671.12 60.91
  L 671.20 61.08
  L 671.30 61.24
  L 671.43 61.38
  L 671.80 61.73
  L 672.14 62.09
  L 672.45 62.46
  L 672.72 62.84
  L 672.96 63.23
  L 673.17 63.64
  L 673.34 64.05
  L 673.48 64.47
  L 673.48 64.47
  L 673.48 64.47
  L 673.48 64.47
  L 673.48 64.47
  L 673.61 65.02
  L 673.68 65.58
  L 673.70 66.17
  L 673.66 66.77
  L 673.40 69.14
  L 673.07 71.84
  L 672.66 74.87
  L 672.18 78.23
  L 672.10 78.69
  L 671.96 79.12
  L 671.67 79.87
  L 671.35 80.56
  L 671.01 81.20
  L 670.64 81.79
  L 670.24 82.35
  L 669.81 82.85
  L 669.35 83.32
  L 668.87 83.74
  L 668.41 84.08
  L 667.94 84.38
  L 667.43 84.66
  L 666.90 84.90
  L 666.34 85.12
  L 665.73 85.32
  L 665.11 85.48
  L 664.44 85.63
  L 663.75 85.74
  L 663.03 85.83
  L 662.24 85.91
  L 661.39 85.96
  L 659.50 86.02
  L 656.76 86.02
  L 655.34 86.02
  L 640.61 86.00
  Z
  M 650.59 47.46
  L 648.92 58.89
  L 648.92 58.93
  L 648.92 59.05
  L 648.95 59.16
  L 649.00 59.27
  L 649.07 59.36
  L 649.15 59.44
  L 649.26 59.49
  L 649.37 59.53
  L 649.48 59.54
  L 660.12 59.55
  L 662.90 59.54
  L 663.99 59.52
  L 664.47 59.43
  L 664.92 59.32
  L 665.33 59.19
  L 665.70 59.02
  L 666.04 58.83
  L 666.34 58.61
  L 666.60 58.37
  L 666.83 58.10
  L 667.02 57.80
  L 667.17 57.48
  L 667.29 57.12
  L 667.37 56.75
  L 668.48 49.67
  L 668.50 49.43
  L 668.50 49.19
  L 668.48 48.96
  L 668.43 48.72
  L 668.36 48.50
  L 668.27 48.28
  L 668.15 48.07
  L 668.02 47.88
  L 667.86 47.70
  L 667.69 47.54
  L 667.50 47.39
  L 667.29 47.27
  L 667.08 47.17
  L 666.86 47.09
  L 666.63 47.04
  L 666.39 47.01
  L 666.39 47.01
  L 666.21 47.00
  L 651.12 47.00
  L 650.93 47.04
  L 650.77 47.13
  L 650.65 47.28
  L 650.59 47.46
  Z
  M 646.61 80.67
  L 649.37 80.75
  L 652.93 80.78
  L 657.27 80.78
  L 662.42 80.75
  L 663.10 80.72
  L 663.73 80.66
  L 664.28 80.56
  L 664.79 80.43
  L 665.24 80.25
  L 665.64 80.04
  L 665.99 79.78
  L 666.29 79.48
  L 666.56 79.11
  L 666.77 78.71
  L 666.93 78.25
  L 667.03 77.74
  L 668.40 68.24
  L 668.46 67.76
  L 668.48 67.31
  L 668.46 66.89
  L 668.40 66.50
  L 668.30 66.15
  L 668.16 65.84
  L 667.99 65.56
  L 667.77 65.32
  L 667.61 65.19
  L 667.42 65.07
  L 667.23 64.97
  L 667.02 64.88
  L 666.79 64.82
  L 666.54 64.77
  L 666.01 64.73
  L 655.96 64.68
  L 648.82 64.69
  L 648.70 64.70
  L 648.59 64.73
  L 648.48 64.78
  L 648.38 64.85
  L 648.30 64.94
  L 648.23 65.04
  L 648.18 65.15
  L 648.15 65.27
  L 646.01 79.94
  L 646.01 80.07
  L 646.03 80.20
  L 646.07 80.32
  L 646.14 80.43
  L 646.23 80.52
  L 646.34 80.60
  L 646.45 80.65
  L 646.58 80.67
  L 646.58 80.67
  L 646.61 80.67
  Z"
/>
</g>
</svg>
